<?xml version="1.0" encoding="utf-8"?>
<!-- Generator: Adobe Illustrator 23.1.1, SVG Export Plug-In . SVG Version: 6.00 Build 0)  -->
<svg version="1.1" id="Layer_1" xmlns="http://www.w3.org/2000/svg" xmlns:xlink="http://www.w3.org/1999/xlink" x="0px" y="0px"
	 viewBox="0 0 20 20" style="enable-background:new 0 0 20 20;" xml:space="preserve">
<style type="text/css">
	.st0{fill:#F5EDE1;}
</style>
<polygon class="st0" points="19.9,15.4 15.4,15.4 15.3,13.9 13.8,13.9 13.8,12.2 12.3,12.2 12.3,10.7 16.8,10.7 17,12.3 18.3,12.3 
	18.3,13.8 19.9,13.8 "/>
<polygon class="st0" points="13.8,20 15.4,20 15.4,15.4 13.8,15.3 13.8,13.9 12.3,13.8 12.3,12.2 10.7,12.2 10.8,16.9 12.3,16.9 
	12.3,18.6 13.8,18.6 "/>
<polygon class="st0" points="9.2,12.3 10.7,12.2 10.8,10.7 9.2,10.7 "/>
<polygon class="st0" points="12.3,10.7 10.8,10.7 10.8,9.2 12.3,9.3 "/>
<polygon class="st0" points="9.3,9.2 10.8,9.2 10.7,7.7 9.2,7.7 "/>
<polygon class="st0" points="7.7,9.2 9.3,9.2 9.2,10.7 7.7,10.8 "/>
<polygon class="st0" points="9.2,16.8 9.2,12.3 7.7,12.2 7.7,14 6.2,13.9 6.1,15.4 4.6,15.4 4.6,19.9 6.2,19.9 6.2,18.4 7.7,18.4 
	7.7,16.8 "/>
<polygon class="st0" points="7.7,12.2 6.2,12.3 6.2,13.9 4.6,13.9 4.6,15.4 0,15.3 0,13.8 1.5,13.8 1.5,12.3 3.1,12.3 3.1,10.8 
	7.7,10.8 "/>
<polygon class="st0" points="7.7,9.2 3.1,9.2 3.1,7.7 1.6,7.6 1.6,6.2 0,6.1 0,4.6 4.6,4.6 4.7,6.1 6.2,6.2 6.3,7.6 7.7,7.7 "/>
<polygon class="st0" points="9.2,7.7 7.7,7.7 7.7,6.2 6.2,6.2 6.1,4.7 4.6,4.6 4.6,0 6.2,0 6.2,1.6 7.6,1.6 7.7,3.1 9.3,3.1 "/>
<polygon class="st0" points="10.7,7.7 10.7,3.1 12.3,3.1 12.3,1.5 13.8,1.5 13.9,0 15.3,0 15.4,4.6 13.9,4.6 13.9,6.1 12.3,6.1 
	12.3,7.7 "/>
<polygon class="st0" points="12.3,9.3 12.3,7.7 13.9,7.7 13.9,6.1 15.4,6.1 15.4,4.6 20,4.6 20,6.2 18.4,6.2 18.5,7.6 16.9,7.7 
	16.9,9.2 "/>
</svg>
