<?xml version="1.0" encoding="utf-8"?>
<!-- Generator: Adobe Illustrator 23.1.1, SVG Export Plug-In . SVG Version: 6.00 Build 0)  -->
<svg version="1.1" id="Layer_1" xmlns="http://www.w3.org/2000/svg" xmlns:xlink="http://www.w3.org/1999/xlink" x="0px" y="0px"
	 viewBox="0 0 386 433" style="enable-background:new 0 0 386 433;" xml:space="preserve">
<style type="text/css">
	.st0{fill:#19324D;}
</style>
<polygon class="st0" points="278.25,6.28 248.58,5.95 248.91,66.95 158.61,66.28 158.91,96.28 249.25,96.28 249.25,184.95 
	218.25,186.95 218.91,216.28 69.58,215.61 68.25,186.28 38.58,186.28 38.91,246.28 69.25,247.61 69.25,335.61 9.25,336.28 
	9.25,426.28 38.91,426.28 39.58,365.61 98.25,366.61 99.91,335.61 129.25,336.28 128.91,306.95 338.91,306.95 338.58,395.95 
	368.58,396.95 369.25,275.61 309.91,275.61 309.58,157.28 339.25,156.28 339.58,127.61 368.58,127.28 369.25,96.95 278.58,96.28 "/>
</svg>
