<?xml version="1.0" encoding="utf-8"?>
<!-- Generator: Adobe Illustrator 23.1.1, SVG Export Plug-In . SVG Version: 6.00 Build 0)  -->
<svg version="1.1" id="Layer_1" xmlns="http://www.w3.org/2000/svg" xmlns:xlink="http://www.w3.org/1999/xlink" x="0px" y="0px"
	 viewBox="0 0 312 470" style="enable-background:new 0 0 312 470;" xml:space="preserve">
<style type="text/css">
	.st0{fill:#19324D;}
</style>
<polygon class="st0" points="139.7,441 138.2,385.6 19.7,384.1 19.7,354.1 46.7,355.6 45.2,324.1 78.2,322.6 75.2,295.6 
	108.2,294.1 109.7,264.1 138.2,265.6 138.2,234.1 51.2,235.6 48.2,204.1 78.2,202.6 76.7,174.1 108.2,172.6 106.7,145.6 
	138.2,144.1 136.7,115.6 76.7,114.1 78.2,84.1 109.7,82.6 108.2,54.1 139.7,54.1 138.2,24.1 166.7,21.1 169.7,55.1 197.7,53.1 
	199.2,82.6 229.7,84.6 229.7,116.1 171.2,112.6 171.2,144.1 199.7,144.1 198.2,175.6 226.7,177.1 228.2,205.6 258.2,204.1 
	258.2,232.6 171.2,231.1 171.2,261.1 196.7,264.1 198.2,292.6 228.2,297.1 228.2,327.1 256.7,327.1 259.7,352.6 289.7,354.1 
	288.2,385.6 169.7,385.6 166.7,442.5 "/>
</svg>
